<?xml version="1.0" encoding="UTF-8"?>
<svg xmlns="http://www.w3.org/2000/svg" xmlns:xlink="http://www.w3.org/1999/xlink" width="80px" height="px" viewBox="0 0 80 80" version="1.1">
<g id="surface1">
<path style=" stroke:none;fill-rule:evenodd;fill:rgb(0%,0%,0%);fill-opacity:1;" d="M 24.332031 35.265625 C 20.863281 35.898438 17.640625 37.570312 15.113281 40.097656 C 11.84375 43.371094 10.003906 47.808594 10.003906 52.433594 L 10.003906 62.53125 C 10.003906 66.675781 13.363281 70.03125 17.503906 70.03125 C 27.964844 70.03125 52.046875 70.03125 62.503906 70.03125 C 66.648438 70.03125 70.003906 66.675781 70.003906 62.53125 L 70.003906 52.433594 C 70.003906 47.808594 68.167969 43.371094 64.894531 40.097656 C 62.367188 37.570312 59.144531 35.898438 55.675781 35.265625 C 56.847656 32.921875 57.503906 30.273438 57.503906 27.476562 C 57.503906 17.816406 49.664062 9.976562 40.003906 9.976562 C 30.347656 9.976562 22.503906 17.816406 22.503906 27.476562 C 22.503906 30.273438 23.164062 32.921875 24.332031 35.265625 Z M 54.988281 40.226562 L 54.988281 45.425781 C 57.898438 46.453125 59.988281 49.234375 59.988281 52.5 C 59.988281 55.253906 60 57.488281 60 57.488281 C 60.007812 58.867188 58.890625 59.992188 57.511719 60 C 56.132812 60.003906 55.007812 58.890625 55 57.511719 C 55 57.511719 54.988281 55.265625 54.988281 52.5 C 54.988281 51.121094 53.875 50 52.496094 50 C 51.121094 50 50.003906 51.121094 50.003906 52.5 L 50 57.503906 C 49.996094 58.882812 48.878906 60.003906 47.496094 60 C 46.117188 59.996094 44.996094 58.878906 45 57.496094 C 45 57.496094 45.003906 52.496094 45.003906 52.5 C 45.003906 49.238281 47.085938 46.464844 49.988281 45.429688 L 49.988281 41.847656 C 47.15625 43.820312 43.714844 44.976562 40.003906 44.976562 C 36.28125 44.976562 32.828125 43.808594 29.988281 41.824219 L 29.988281 45.425781 C 32.902344 46.457031 34.988281 49.238281 34.988281 52.5 C 34.988281 56.640625 31.628906 60 27.488281 60 C 23.351562 60 19.988281 56.640625 19.988281 52.5 C 19.988281 49.238281 22.078125 46.457031 24.988281 45.425781 L 24.988281 40.234375 C 22.605469 40.714844 20.398438 41.886719 18.652344 43.632812 C 16.316406 45.96875 15.003906 49.136719 15.003906 52.433594 C 15.003906 52.433594 15.003906 62.53125 15.003906 62.53125 C 15.003906 63.914062 16.125 65.03125 17.503906 65.03125 L 62.503906 65.03125 C 63.886719 65.03125 65.003906 63.914062 65.003906 62.53125 C 65.003906 62.53125 65.003906 52.433594 65.003906 52.433594 C 65.003906 49.136719 63.691406 45.96875 61.359375 43.632812 C 59.609375 41.878906 57.386719 40.703125 54.988281 40.226562 Z M 27.488281 50 C 28.871094 50 29.988281 51.121094 29.988281 52.5 C 29.988281 53.878906 28.871094 55 27.488281 55 C 26.109375 55 24.988281 53.878906 24.988281 52.5 C 24.988281 51.121094 26.109375 50 27.488281 50 Z M 40.003906 14.976562 C 46.90625 14.976562 52.503906 20.578125 52.503906 27.476562 C 52.503906 34.375 46.90625 39.976562 40.003906 39.976562 C 33.105469 39.976562 27.503906 34.375 27.503906 27.476562 C 27.503906 20.578125 33.105469 14.976562 40.003906 14.976562 Z M 40.003906 14.976562 "/>
</g>
</svg>
