<?xml version="1.0" encoding="UTF-8"?>
<svg xmlns="http://www.w3.org/2000/svg" xmlns:xlink="http://www.w3.org/1999/xlink" width="80px" height="px" viewBox="0 0 80 80" version="1.1">
<g id="surface1">
<path style=" stroke:none;fill-rule:evenodd;fill:rgb(0%,0%,0%);fill-opacity:1;" d="M 24.328125 35.1875 C 20.859375 35.816406 17.636719 37.488281 15.109375 40.015625 C 11.835938 43.289062 10 47.726562 10 52.355469 L 10 62.453125 C 10 66.59375 13.359375 69.953125 17.5 69.953125 C 27.960938 69.953125 52.039062 69.953125 62.5 69.953125 C 66.640625 69.953125 70 66.59375 70 62.453125 L 70 52.355469 C 70 47.726562 68.164062 43.289062 64.890625 40.015625 C 62.363281 37.488281 59.140625 35.816406 55.671875 35.1875 C 56.84375 32.839844 57.5 30.195312 57.5 27.394531 C 57.5 17.738281 49.65625 9.894531 40 9.894531 C 30.34375 9.894531 22.5 17.738281 22.5 27.394531 C 22.5 30.195312 23.15625 32.839844 24.328125 35.1875 Z M 52.25 39.886719 C 49.09375 42.984375 44.765625 44.894531 40 44.894531 C 35.234375 44.894531 30.90625 42.984375 27.75 39.886719 C 27.648438 39.898438 27.550781 39.90625 27.449219 39.90625 C 24.148438 39.90625 20.980469 41.21875 18.648438 43.550781 C 16.3125 45.886719 15 49.054688 15 52.355469 C 15 52.355469 15 62.453125 15 62.453125 C 15 63.832031 16.121094 64.953125 17.5 64.953125 L 62.5 64.953125 C 63.878906 64.953125 65 63.832031 65 62.453125 C 65 62.453125 65 52.355469 65 52.355469 C 65 49.054688 63.6875 45.886719 61.351562 43.550781 C 59.019531 41.21875 55.851562 39.90625 52.550781 39.90625 C 52.449219 39.90625 52.351562 39.898438 52.25 39.886719 Z M 40 14.894531 C 46.898438 14.894531 52.5 20.496094 52.5 27.394531 C 52.5 34.296875 46.898438 39.894531 40 39.894531 C 33.101562 39.894531 27.5 34.296875 27.5 27.394531 C 27.5 20.496094 33.101562 14.894531 40 14.894531 Z M 40 14.894531 "/>
<path style=" stroke:none;fill-rule:evenodd;fill:rgb(0%,0%,0%);fill-opacity:1;" d="M 50 50.019531 L 47.5 50.019531 C 46.121094 50.019531 45 51.140625 45 52.519531 C 45 53.898438 46.121094 55.019531 47.5 55.019531 L 50 55.019531 L 50 57.519531 C 50 58.898438 51.121094 60.019531 52.5 60.019531 C 53.878906 60.019531 55 58.898438 55 57.519531 L 55 55.019531 L 57.5 55.019531 C 58.878906 55.019531 60 53.898438 60 52.519531 C 60 51.140625 58.878906 50.019531 57.5 50.019531 L 55 50.019531 L 55 47.519531 C 55 46.140625 53.878906 45.019531 52.5 45.019531 C 51.121094 45.019531 50 46.140625 50 47.519531 Z M 50 50.019531 "/>
</g>
</svg>
